<svg id="ORNAMENT" xmlns="http://www.w3.org/2000/svg" viewBox="0 0 500 500"><defs><style>.cls-1{fill:#6b81be;}.cls-2{isolation:isolate;}.cls-3{fill:#404b7c;}.cls-4{fill:#f68d88;}.cls-5{fill:#9ab3da;}.cls-6{fill:#ecbdbb;}.cls-7{fill:#eee;}.cls-8{fill:#fff;}</style></defs><title>Setting copy</title><path class="cls-1" d="M289.84,97.8L276.64,111a5.87,5.87,0,1,1-4.42-4.42l13.2-13.2a8.58,8.58,0,0,1,11.29-11.32,1.43,1.43,0,0,0-.23.2L291.73,87a3.17,3.17,0,1,0,4.48,4.48L301,86.74a1.43,1.43,0,0,0,.2-0.23A8.58,8.58,0,0,1,289.84,97.8Z"/><rect class="cls-1" x="237.4" y="22.24" width="3.33" height="8.62" rx="1.53" ry="1.53"/><rect class="cls-1" x="245.62" y="30.45" width="3.33" height="8.62" rx="1.53" ry="1.53" transform="translate(282.04 -212.52) rotate(90)"/><rect class="cls-1" x="237.4" y="38.67" width="3.33" height="8.62" rx="1.53" ry="1.53" transform="translate(478.13 85.95) rotate(180)"/><rect class="cls-1" x="229.19" y="30.45" width="3.33" height="8.62" rx="1.53" ry="1.53" transform="translate(196.09 265.62) rotate(-90)"/><rect class="cls-1" x="80.02" y="93.8" width="3.33" height="8.62" rx="1.53" ry="1.53"/><rect class="cls-1" x="88.23" y="102.01" width="3.33" height="8.62" rx="1.53" ry="1.53" transform="translate(196.21 16.43) rotate(90)"/><rect class="cls-1" x="80.02" y="110.22" width="3.33" height="8.62" rx="1.53" ry="1.53" transform="translate(163.36 229.07) rotate(180)"/><rect class="cls-1" x="71.8" y="102.01" width="3.33" height="8.62" rx="1.53" ry="1.53" transform="translate(-32.85 179.79) rotate(-90)"/><path class="cls-1" d="M223.56,53.33A6.65,6.65,0,1,0,230.21,60,6.64,6.64,0,0,0,223.56,53.33Zm0,10.25a3.6,3.6,0,1,1,3.59-3.6A3.59,3.59,0,0,1,223.56,63.57Z"/><path class="cls-1" d="M119.62,160.15a6.65,6.65,0,1,0,6.65,6.65A6.64,6.64,0,0,0,119.62,160.15Zm0,10.25a3.6,3.6,0,1,1,3.59-3.6A3.59,3.59,0,0,1,119.62,170.39Z"/><g class="cls-2"><polygon class="cls-3" points="194.34 63.61 164.85 72.55 168.54 67.96 198.03 59.02 194.34 63.61"/><polygon class="cls-3" points="218.41 143.3 188.92 152.24 182.5 145.56 211.99 136.62 218.41 143.3"/><polygon class="cls-3" points="174.26 38.22 144.77 47.16 143.57 33.98 173.06 25.04 174.26 38.22"/><path class="cls-3" d="M148.69,80.29l29.49-8.94c3.74-1.14,9.54,5.83,13.95,17.31,5.09,13.28,6.39,27.56,2.9,31.9l-29.49,8.94c3.49-4.34,2.2-18.62-2.9-31.9C158.23,86.12,152.43,79.16,148.69,80.29Z"/><path class="cls-3" d="M193.43,121.71l-29.49,8.94a3.27,3.27,0,0,0,1.59-1.14L195,120.56A3.27,3.27,0,0,1,193.43,121.71Z"/><polygon class="cls-3" points="208.12 169.99 178.63 178.94 173.24 164.9 202.73 155.95 208.12 169.99"/><path class="cls-3" d="M202.73,156l-29.49,8.94a9.27,9.27,0,0,1-5.38-1.12l29.49-8.94A9.27,9.27,0,0,0,202.73,156Z"/><polygon class="cls-3" points="155.55 32.94 126.06 41.88 134 32.01 163.49 23.07 155.55 32.94"/><polygon class="cls-3" points="160.94 46.98 131.45 55.92 126.06 41.88 155.55 32.94 160.94 46.98"/><path class="cls-3" d="M159.61,56.44l-29.49,8.94a47.54,47.54,0,0,1,1.33-9.46L160.94,47A47.53,47.53,0,0,0,159.61,56.44Z"/><polygon class="cls-3" points="184.75 153.65 155.26 162.6 154.06 149.41 183.55 140.47 184.75 153.65"/><polygon class="cls-3" points="198.54 168.02 169.05 176.96 155.26 162.6 184.75 153.65 198.54 168.02"/><path class="cls-3" d="M183.55,140.47l-29.49,8.94a112.29,112.29,0,0,1-6.28-11l29.49-8.94A112.29,112.29,0,0,0,183.55,140.47Z"/><path class="cls-3" d="M165.69,99.25L136.2,108.2c-1.4-4.91-2.57-9.77-3.5-14.48l29.49-8.94C163.12,89.48,164.29,94.34,165.69,99.25Z"/><polygon class="cls-3" points="162.19 84.77 132.7 93.71 126.28 87.03 155.77 78.09 162.19 84.77"/><polygon class="cls-3" points="155.77 78.09 126.28 87.03 123.7 58.7 153.19 49.76 155.77 78.09"/><polygon class="cls-3" points="173.57 134.04 144.09 142.98 132.51 112.79 162 103.85 173.57 134.04"/><path class="cls-4" d="M209.61,89.21l-3.69,4.59c1.4,4.91,2.57,9.77,3.5,14.49l6.42,6.68,2.57,28.33L212,136.62a48,48,0,0,1-1.33,9.46l5.38,14L208.11,170l-5.38-14a9.27,9.27,0,0,1-5.38-1.12l1.2,13.18-13.8-14.37-1.2-13.18a112.29,112.29,0,0,1-6.28-11l-3.69,4.6L162,103.85l3.69-4.6c-1.4-4.91-2.57-9.77-3.5-14.48l-6.42-6.68-2.58-28.33,6.42,6.68A47.53,47.53,0,0,1,160.94,47l-5.39-14,7.94-9.87,5.39,14a9.18,9.18,0,0,1,5.38,1.11L173.06,25l13.8,14.37,1.2,13.18a111.81,111.81,0,0,1,6.28,11L198,59ZM195,120.56c3.49-4.34,2.2-18.62-2.9-31.9s-12.05-20.51-15.54-16.17-2.2,18.62,2.9,31.9,12,20.52,15.54,16.17"/><polygon class="cls-3" points="162 103.85 132.51 112.79 136.2 108.19 165.69 99.25 162 103.85"/><path class="cls-5" d="M132.51,56.68a0.5,0.5,0,0,1-.15-1l19.28-6a0.5,0.5,0,1,1,.3,1l-19.28,6Z"/><path class="cls-5" d="M128,87a0.5,0.5,0,0,1-.15-1l26.25-8a0.5,0.5,0,0,1,.29,1l-26.25,8Z"/><path class="cls-5" d="M135.49,93.37a0.5,0.5,0,0,1-.15-1l25.45-7.72a0.5,0.5,0,0,1,.29,1l-25.45,7.72Z"/><path class="cls-5" d="M137.67,108.25a0.5,0.5,0,0,1-.15-1l26.27-8a0.5,0.5,0,0,1,.29,1l-26.27,8Z"/><path class="cls-5" d="M134.07,112.82a0.5,0.5,0,0,1-.15-1l26.87-8.15a0.5,0.5,0,0,1,.29,1l-26.87,8.15Z"/><path class="cls-5" d="M150.8,141.44a0.5,0.5,0,0,1-.15-1L172,134a0.5,0.5,0,1,1,.29,1l-21.3,6.46Z"/><path class="cls-5" d="M155.26,149.55a0.5,0.5,0,0,1-.15-1l26.73-8.11a0.5,0.5,0,0,1,.29,1l-26.73,8.11Z"/><path class="cls-5" d="M156.85,162.61a0.5,0.5,0,0,1-.15-1l26.07-7.91a0.5,0.5,0,0,1,.29,1L157,162.59Z"/><path class="cls-5" d="M178.36,174.64a0.5,0.5,0,0,1-.15-1L196,168.28a0.5,0.5,0,0,1,.29,1l-17.75,5.38Z"/><path class="cls-5" d="M198.31,157.79a0.5,0.5,0,0,1-.15-1l2.57-.78a0.5,0.5,0,0,1,.29,1l-2.57.78Z"/><path class="cls-5" d="M154.23,49.51a0.5,0.5,0,0,1-.15-1l5.26-1.59a0.5,0.5,0,1,1,.29,1l-5.26,1.59Z"/><path class="cls-5" d="M128,41.8a0.5,0.5,0,0,1-.15-1L153,33.18a0.5,0.5,0,1,1,.29,1l-25.21,7.64Z"/></g><g class="cls-2"><polygon class="cls-3" points="148.42 256.55 130.24 262.06 132.51 259.23 150.7 253.71 148.42 256.55"/><polygon class="cls-3" points="163.26 305.68 145.08 311.19 141.12 307.07 159.31 301.56 163.26 305.68"/><polygon class="cls-3" points="136.04 240.89 117.86 246.4 117.12 238.28 135.3 232.76 136.04 240.89"/><path class="cls-3" d="M120.27,266.83l18.18-5.51c2.31-.7,5.88,3.59,8.6,10.67,3.14,8.19,3.94,17,1.79,19.67l-18.18,5.51c2.15-2.68,1.35-11.48-1.79-19.67C126.16,270.42,122.58,266.13,120.27,266.83Z"/><path class="cls-3" d="M147.86,292.36l-18.18,5.51a2,2,0,0,0,1-.7l18.18-5.51A2,2,0,0,1,147.86,292.36Z"/><polygon class="cls-3" points="156.91 322.13 138.73 327.65 135.41 318.99 153.59 313.48 156.91 322.13"/><path class="cls-3" d="M153.59,313.48L135.41,319a5.71,5.71,0,0,1-3.32-.69l18.18-5.51A5.71,5.71,0,0,0,153.59,313.48Z"/><polygon class="cls-3" points="124.51 237.63 106.33 243.15 111.22 237.06 129.4 231.55 124.51 237.63"/><polygon class="cls-3" points="127.83 246.29 109.65 251.81 106.33 243.15 124.51 237.63 127.83 246.29"/><path class="cls-3" d="M127,252.13l-18.18,5.51a29.31,29.31,0,0,1,.82-5.83l18.18-5.51A29.31,29.31,0,0,0,127,252.13Z"/><polygon class="cls-3" points="142.51 312.06 124.33 317.57 123.59 309.45 141.77 303.93 142.51 312.06"/><polygon class="cls-3" points="151.01 320.92 132.83 326.43 124.33 317.57 142.51 312.06 151.01 320.92"/><path class="cls-3" d="M141.77,303.93l-18.18,5.51a69.23,69.23,0,0,1-3.87-6.8l18.18-5.51A69.23,69.23,0,0,0,141.77,303.93Z"/><path class="cls-3" d="M130.76,278.52L112.58,284c-0.86-3-1.59-6-2.16-8.93l18.18-5.51C129.17,272.49,129.89,275.49,130.76,278.52Z"/><polygon class="cls-3" points="128.6 269.59 110.42 275.1 106.46 270.98 124.64 265.47 128.6 269.59"/><polygon class="cls-3" points="124.64 265.47 106.46 270.98 104.87 253.52 123.05 248 124.64 265.47"/><polygon class="cls-3" points="135.62 299.97 117.44 305.48 110.3 286.87 128.48 281.35 135.62 299.97"/><path class="cls-4" d="M157.84,272.33l-2.28,2.83c0.86,3,1.58,6,2.16,8.93l4,4.12,1.59,17.47-4-4.12a29.57,29.57,0,0,1-.82,5.83l3.32,8.66-4.89,6.09-3.32-8.66a5.71,5.71,0,0,1-3.32-.69l0.74,8.13-8.51-8.86-0.74-8.13a69.23,69.23,0,0,1-3.87-6.8L135.62,300l-7.14-18.61,2.28-2.83c-0.86-3-1.59-6-2.16-8.93l-4-4.12L123.05,248l4,4.12a29.31,29.31,0,0,1,.82-5.83l-3.32-8.66,4.89-6.09,3.32,8.66a5.66,5.66,0,0,1,3.32.69l-0.74-8.13,8.51,8.86,0.74,8.13a68.93,68.93,0,0,1,3.87,6.8l2.28-2.83Zm-9,19.33C151,289,150.2,280.18,147.06,272s-7.43-12.65-9.58-10-1.35,11.48,1.79,19.67,7.43,12.65,9.58,10"/><polygon class="cls-3" points="128.48 281.35 110.3 286.87 112.58 284.03 130.76 278.52 128.48 281.35"/><path class="cls-5" d="M110.3,252.46a0.5,0.5,0,0,1-.15-1l11.89-3.7a0.5,0.5,0,0,1,.3,1l-11.89,3.7Z"/><path class="cls-5" d="M107.51,271.16a0.5,0.5,0,0,1-.15-1l16.19-4.91a0.5,0.5,0,1,1,.29,1l-16.19,4.91Z"/><path class="cls-5" d="M112.14,275.08a0.5,0.5,0,0,1-.15-1l15.69-4.76a0.5,0.5,0,1,1,.29,1l-15.69,4.76Z"/><path class="cls-5" d="M113.48,284.26a0.5,0.5,0,0,1-.15-1l16.2-4.91a0.5,0.5,0,1,1,.29,1l-16.2,4.91Z"/><path class="cls-5" d="M111.26,287.07a0.5,0.5,0,0,1-.15-1l16.57-5a0.5,0.5,0,1,1,.29,1l-16.57,5Z"/><path class="cls-5" d="M121.58,304.72a0.5,0.5,0,0,1-.15-1l13.13-4a0.5,0.5,0,1,1,.29,1l-13.13,4Z"/><path class="cls-5" d="M124.32,309.72a0.5,0.5,0,0,1-.15-1l16.48-5a0.5,0.5,0,1,1,.29,1l-16.48,5Z"/><path class="cls-5" d="M125.31,317.78a0.5,0.5,0,0,1-.15-1l16.07-4.87a0.5,0.5,0,1,1,.29,1l-16.07,4.88Z"/><path class="cls-5" d="M138.57,325.19a0.5,0.5,0,0,1-.15-1l10.94-3.32a0.5,0.5,0,1,1,.29,1l-10.94,3.32Z"/><path class="cls-5" d="M150.87,314.8a0.5,0.5,0,0,1-.15-1l1.58-.48a0.5,0.5,0,1,1,.29,1l-1.58.48Z"/><path class="cls-5" d="M123.7,248a0.5,0.5,0,0,1-.15-1l3.24-1a0.5,0.5,0,1,1,.29,1l-3.24,1Z"/><path class="cls-5" d="M107.51,243.29a0.5,0.5,0,0,1-.15-1l15.54-4.71a0.5,0.5,0,1,1,.29,1l-15.54,4.71Z"/></g><polygon class="cls-3" points="209.05 349.14 209.05 371.06 237.62 374.35 239.29 349.91 209.05 349.14"/><polygon class="cls-5" points="239.29 349.91 261.8 355.95 258.2 376.93 237.62 374.35 239.29 349.91"/><polygon class="cls-3" points="167.99 371.83 164.13 370.96 164.17 358.07 168.03 358.94 167.99 371.83"/><polygon class="cls-3" points="186.62 356.81 190.48 357.68 168.03 358.94 164.17 358.07 186.62 356.81"/><polygon class="cls-1" points="158.8 370.96 158.8 353.46 192.66 350.76 192.66 370.19 186.75 370.32 186.62 356.81 164.17 358.07 164.13 370.96 158.8 370.96"/><polygon class="cls-4" points="196.52 351.63 192.66 350.76 192.66 370.19 196.52 371.06 196.52 351.63"/><polygon class="cls-1" points="109.34 457.85 100.6 372.17 203.26 368.05 193.23 457.85 109.34 457.85"/><path class="cls-5" d="M108.32,396.08a0.5,0.5,0,0,1,0-1L195,393.54a0.55,0.55,0,0,1,.51.49,0.5,0.5,0,0,1-.49.51l-86.71,1.54h0Z"/><polygon class="cls-5" points="150.32 391.21 153.99 392.04 152.64 404.91 149.04 404.59 150.32 391.21"/><polygon class="cls-3" points="138.71 404.59 137.58 391.55 150.32 391.21 149.04 404.59 138.71 404.59"/><polygon class="cls-4" points="203.26 368.05 264.38 376.67 252.6 457.85 193.23 457.85 203.26 368.05"/><path class="cls-6" d="M257.43,397.43h0l-52.11-2.9a0.5,0.5,0,0,1-.47-0.53,0.48,0.48,0,0,1,.53-0.47l52.11,2.9A0.5,0.5,0,0,1,257.43,397.43Z"/><path class="cls-4" d="M217.26,233.73l-26,9.14a3.29,3.29,0,0,1-3.84-1.57L168.46,206a2.26,2.26,0,0,1,1.2-3.34l26-9.14a3.29,3.29,0,0,1,3.84,1.57l18.95,35.32A2.26,2.26,0,0,1,217.26,233.73Z"/><path class="cls-1" d="M220.9,226l-26,9.14a3.29,3.29,0,0,1-3.84-1.57l-18.95-35.32a2.26,2.26,0,0,1,1.2-3.34l26-9.14a3.29,3.29,0,0,1,3.84,1.57l18.95,35.32A2.26,2.26,0,0,1,220.9,226Z"/><path class="cls-5" d="M178,202.66a0.5,0.5,0,0,1-.17-1L202.49,193a0.5,0.5,0,0,1,.33.94l-24.66,8.66A0.49,0.49,0,0,1,178,202.66Z"/><path class="cls-7" d="M203.53,203.52l-10.66,3.74a1.9,1.9,0,0,1-2.22-.91h0a1.31,1.31,0,0,1,.7-1.93L202,200.69a1.9,1.9,0,0,1,2.22.91h0A1.31,1.31,0,0,1,203.53,203.52Z"/><path class="cls-7" d="M208.2,212.21l-17.1,6a1.9,1.9,0,0,1-2.22-.91h0a1.31,1.31,0,0,1,.7-1.93l17.1-6a1.9,1.9,0,0,1,2.22.91h0A1.31,1.31,0,0,1,208.2,212.21Z"/><path class="cls-7" d="M212.86,220.9l-17.1,6a1.9,1.9,0,0,1-2.22-.91h0a1.31,1.31,0,0,1,.7-1.93l17.1-6a1.9,1.9,0,0,1,2.22.91h0A1.31,1.31,0,0,1,212.86,220.9Z"/><path class="cls-7" d="M190.52,193.1a1.28,1.28,0,0,1-.68,1.89,1.86,1.86,0,0,1-2.17-.89,1.28,1.28,0,0,1,.68-1.89A1.86,1.86,0,0,1,190.52,193.1Z"/><path class="cls-7" d="M195.54,191.34a1.28,1.28,0,0,1-.68,1.89,1.86,1.86,0,0,1-2.17-.89,1.28,1.28,0,0,1,.68-1.89A1.86,1.86,0,0,1,195.54,191.34Z"/><path class="cls-7" d="M200.55,189.58a1.28,1.28,0,0,1-.68,1.89,1.86,1.86,0,0,1-2.17-.89,1.28,1.28,0,0,1,.68-1.89A1.86,1.86,0,0,1,200.55,189.58Z"/><path class="cls-6" d="M307.28,429.35s-9,1.09-9,.81-1.6-7.55-2.45-11.49l-0.53-2.44,11-1.09,0.53,7.58Z"/><path class="cls-3" d="M306.28,415.15l0.53,7.58a25.2,25.2,0,0,1-11-4.05l-0.53-2.44Z"/><path class="cls-3" d="M296.06,426.55s-12,12.67-13.85,12.94-10,2-10,2l-3.26,13.3s31.31,0.54,47.51-2.9c-0.18-8.87-2.44-19.18-6.79-26.06A25.69,25.69,0,0,1,296.06,426.55Z"/><path class="cls-5" d="M286.47,444a0.5,0.5,0,0,1-.25-0.93,46.86,46.86,0,0,0,15.66-14.66,0.5,0.5,0,0,1,.86.51,48,48,0,0,1-16,15A0.5,0.5,0,0,1,286.47,444Z"/><path class="cls-4" d="M279.41,438.85s-18.64-.27-14,22.53c0,0,31.76.09,52.31-3.8l-0.27-7s-17.1,2.44-28.78,2.35C288.64,453,286.2,442.38,279.41,438.85Z"/><ellipse class="cls-7" cx="306.69" cy="440.71" rx="5.29" ry="6.38"/><path class="cls-5" d="M288.82,401.39s0.63,9.77,3.8,17a45.46,45.46,0,0,0,11.85,0c5.61-.9,8.14-3,8.14-3l-0.54-15A31.46,31.46,0,0,0,288.82,401.39Z"/><path class="cls-1" d="M319.77,279.22s-0.59,3.75-1.46,9.52c-0.63,4.1-1.4,9.25-2.23,14.8-1.8,12.24-3.83,26.49-5,36.22-2.44,20.36-2.71,63-2.71,63-6.79,3.8-16,1.63-16,1.63s-10-56.74-13-83.62-5.7-86.06-5.7-86.06c0.81-22,42.35-19.28,44.25,10.86Z"/><path class="cls-3" d="M318.32,288.75c-0.63,4.1-1.4,9.25-2.23,14.8-7.51-7.87-10.11-21.13-10.28-22.1C306.7,284.95,312.33,287.27,318.32,288.75Z"/><path class="cls-5" d="M289.89,322.4c-9,1.22-8.84,26.52,5,26.65S301.81,320.79,289.89,322.4Z"/><path class="cls-5" d="M305.11,401.08a0.5,0.5,0,0,1-.5-0.45c-4.83-44.67,5.1-113.71,5.2-114.4a0.5,0.5,0,0,1,1,.14c-0.1.69-10,69.61-5.19,114.15a0.5,0.5,0,0,1-.44.55h-0.05Z"/><path class="cls-5" d="M315.09,288.41H315c-0.33-.05-8.14-1.33-9.71-6.87-1.49-5.28-3.72-31.69-3.82-32.81a0.5,0.5,0,0,1,1-.08c0,0.27,2.32,27.43,3.78,32.62,1.15,4.08,6.47,5.62,8.29,6-0.21-4.19-1.33-27.68-.72-37.15a0.52,0.52,0,0,1,.53-0.47,0.5,0.5,0,0,1,.47.53c-0.67,10.3.74,37.41,0.75,37.68A0.5,0.5,0,0,1,315.09,288.41Z"/><path class="cls-5" d="M277.28,260.66l-0.27,0a0.5,0.5,0,0,1,.14-1,3.39,3.39,0,0,0,2.56-1.1c1.93-1.83,4-6.53,3.16-18.57a0.5,0.5,0,0,1,.46-0.54,0.51,0.51,0,0,1,.54.46c0.91,12.49-1.41,17.45-3.51,19.41A4.57,4.57,0,0,1,277.28,260.66Z"/><polygon class="cls-6" points="367.01 434.91 357.24 435.19 354.9 424.98 353.98 420.94 366.47 420.8 366.76 428.31 367.01 434.91"/><path class="cls-3" d="M366.76,428.31A34,34,0,0,1,354.9,425l-0.92-4,12.49-.14Z"/><path class="cls-3" d="M354.18,431.73s7.6-3.67,14.39-.88c0,0,3.8,6.79,5.09,18.66,0,0-4.75,15-15.14,16.15a51.42,51.42,0,0,1-18.66-1.36s6.9-16.2,8.05-19.25S354.18,431.73,354.18,431.73Z"/><path class="cls-5" d="M358.15,452.78c-2.38,0-7.17-.28-8.65-2.47a3,3,0,0,1,0-3.07c2.49-5.34,5.29-13.62,5.32-13.7a0.5,0.5,0,0,1,.95.32c0,0.08-2.84,8.42-5.36,13.81a2,2,0,0,0,0,2.08c1.26,1.87,6.48,2.09,8.75,2a79.82,79.82,0,0,0,5.45-18,0.5,0.5,0,0,1,1,.15,81.28,81.28,0,0,1-5.65,18.5,0.5,0.5,0,0,1-.43.29C359.26,452.76,358.79,452.78,358.15,452.78Z"/><ellipse class="cls-7" cx="369.23" cy="442.02" rx="2.13" ry="5.52" transform="translate(-83.65 86.2) rotate(-11.97)"/><path class="cls-4" d="M345.88,445.19S331,454.33,338,472.65c0,0,18.19,2.71,25.25-.54s11.67-17,11.67-17a30.17,30.17,0,0,0-1.12-6.55s-4,7.58-9.38,12.24C364.39,460.8,363.39,442.61,345.88,445.19Z"/><path class="cls-5" d="M346.24,407a33.07,33.07,0,0,1,23.89-.27l0.14,15.75a32.92,32.92,0,0,1-18.19.41Z"/><path class="cls-1" d="M368.38,408.66c-8.73,2.9-17.22.89-19.5,0.24-4.77-14.35-24.71-74.83-30.19-100.35-6.24-29-7.33-62.17-7.33-62.17,3.26-24,48.74-25.39,52.94,1.36,0,0,.27,90.4.54,103.16C365.07,361.55,367.56,397.19,368.38,408.66Z"/><path class="cls-5" d="M316,294.69a0.5,0.5,0,0,1-.49-0.42,440.45,440.45,0,0,1-4.68-47.88,0.5,0.5,0,0,1,.48-0.52h0a0.5,0.5,0,0,1,.5.48,439.29,439.29,0,0,0,4.67,47.75,0.5,0.5,0,0,1-.42.57H316Z"/><path class="cls-5" d="M340.13,331.62c-9.15,1.23-9,26.88,5,27S352.21,330,340.13,331.62Z"/><path class="cls-5" d="M364,405.15a0.5,0.5,0,0,1-.5-0.44c-0.12-1-11.69-95.79-12.76-160.23a0.5,0.5,0,0,1,.49-0.51,0.49,0.49,0,0,1,.51.49c1.07,64.39,12.64,159.17,12.76,160.12a0.5,0.5,0,0,1-.44.56H364Z"/><path class="cls-5" d="M348.42,276.28c-3.44,0-8.94-4.14-9.66-7.26-1.08-4.74-1.68-22.3-1.7-23a0.5,0.5,0,0,1,.48-0.52h0a0.5,0.5,0,0,1,.5.48c0,0.18.62,18.21,1.68,22.86,0.61,2.66,5.72,6.48,8.68,6.48A0.5,0.5,0,0,1,348.42,276.28Z"/><path class="cls-6" d="M277,176.24c-4.84,2.93-8.95,4.47-13,4.44-6,0-11.9-3.61-19.88-11.33-13.3-12.85-26.69-38.28-26.69-38.28s-3.34-.72-4.07-3.07-2.53-10.67-2.53-10.67-8.14-13-6.34-14.66,6.41,4.67,6.93,5.36c-0.65-1.22-10.82-20.06-5.2-15.51,5.79,4.71,13,13.49,14.06,16.06s4.21,16,4.21,16l36.66,31,0.13,0.11,6.23-3.8Z"/><path class="cls-3" d="M277,176.24c-4.3,2.61-8,4.12-11.62,4.39a72.07,72.07,0,0,1-.25-27.27l2.41-1.47Z"/><path class="cls-3" d="M216.06,113.85a0.5,0.5,0,0,1-.38-0.18l-3.8-4.52a0.5,0.5,0,0,1,.77-0.64l3.8,4.52A0.5,0.5,0,0,1,216.06,113.85Z"/><path class="cls-4" d="M302.53,123.26c-7.72,0-39.91,26.88-39.91,26.88s5.57,20.09,14.93,30.54c0,0,19.82-13.57,32.17-30S312.17,123.26,302.53,123.26Z"/><path class="cls-6" d="M282.85,175.34a0.5,0.5,0,0,1-.37-0.17c-9.07-10.28-13.77-27.18-13.82-27.35a0.5,0.5,0,0,1,1-.26c0,0.17,4.69,16.84,13.6,27A0.5,0.5,0,0,1,282.85,175.34Z"/><path class="cls-4" d="M333.21,119.45a157.06,157.06,0,0,0-30.68,3.8s-22.67,43-32.17,112.53c0,0,10.32,14.39,42.89,19.55s56.2-3.8,56.2-3.8,5.43-87.69-1.09-112.67C368.37,138.87,351.4,121.35,333.21,119.45Z"/><path class="cls-6" d="M283.46,174.37l-0.14,0a0.5,0.5,0,0,1-.34-0.62c6.88-23.64,13.87-39.76,17.42-47.26a0.5,0.5,0,1,1,.9.43A327.25,327.25,0,0,0,283.94,174,0.5,0.5,0,0,1,283.46,174.37Z"/><path class="cls-6" d="M336.86,249.47c-40.1,0-62.46-17.51-62.74-17.73a0.5,0.5,0,0,1,.63-0.78c0.33,0.26,33.64,26.31,92.07,14.38a0.5,0.5,0,1,1,.2,1A150.49,150.49,0,0,1,336.86,249.47Z"/><path class="cls-6" d="M329.42,160.12a2.31,2.31,0,0,1-.39,0l-4.31-.76a2.23,2.23,0,0,1-1.83-2.5c1.41-10.22,5-28.2,5.08-28.38a0.5,0.5,0,0,1,.23-0.33,0.51,0.51,0,0,1,.39-0.06l7.06,1.9a0.5,0.5,0,0,1,.36.59c-1.69,7.53-3.78,23-4.37,27.62A2.23,2.23,0,0,1,329.42,160.12Zm-0.58-30.95c-0.61,3-3.7,18.58-5,27.8a1.23,1.23,0,0,0,1,1.38l4.31,0.76a1.23,1.23,0,0,0,1.44-1.05c0.59-4.49,2.61-19.51,4.29-27.24Z"/><path class="cls-1" d="M335.59,114.09c-3-.47-6.83.4-8.83,1a2,2,0,0,0-1.43,1.78l-0.53,9.28a13.13,13.13,0,0,0,9.77,5.57,13.27,13.27,0,0,0,10-3.39l2-8.85a2,2,0,0,0-.87-2.08A27.36,27.36,0,0,0,335.59,114.09Z"/><path class="cls-6" d="M340.26,106.49l-0.05,4.06-0.13,9.55-0.62.11a17.5,17.5,0,0,1-9.08-1l1.26-5,1.77-7Z"/><path class="cls-3" d="M340.26,106.49l-0.05,4.06a16.72,16.72,0,0,1-8.57,3.58l1.77-7Z"/><path class="cls-5" d="M336.87,120.91a18.45,18.45,0,0,1-6.67-1.28l-0.8-.33a15.77,15.77,0,0,1-2.8-1.54,0.5,0.5,0,0,1,.59-0.8,15.12,15.12,0,0,0,2.61,1.43l0.77,0.32a17,17,0,0,0,8.81,1l0.59-.1a16.9,16.9,0,0,0,4.54-1.62,0.5,0.5,0,1,1,.46.89,17.87,17.87,0,0,1-4.8,1.71l-0.62.11A17.13,17.13,0,0,1,336.87,120.91Z"/><path class="cls-6" d="M353,206.06s-4.12,4.71-8.95,9.58c-5.21,5.23-11.25,10.64-13.86,10.51-42.62-2.31-78.12-20.5-78.12-20.5s-4.41.61-7.12-2.24-6.8-11.21-6.8-11.21a53.63,53.63,0,0,1-7.19-3.72c-1.9-1.42-2.44-3.05-1.84-4.07s2.61,0,2.78.05c-5.63-4.4-3.87-6.92-2.51-6.78a11.21,11.21,0,0,1,3.4,1.36c-0.81-2-.62-4.21,1.09-4.14s3.87,1.9,3.87,1.9,0.21-1.43,2.17-.89,9.09,6.52,10.11,7.68S256.93,198,256.93,198l65.7,1.9,5.85-10,1.88-3.2Z"/><path class="cls-3" d="M247.24,185.06a0.5,0.5,0,0,1-.39-0.18c-0.34-.39-5.21-4.3-8.2-6.67a0.5,0.5,0,0,1,.62-0.78c1.32,1,7.94,6.3,8.36,6.82A0.5,0.5,0,0,1,247.24,185.06Z"/><path class="cls-3" d="M244.12,187a0.5,0.5,0,0,1-.32-0.11,97.64,97.64,0,0,0-9.8-6.51,0.5,0.5,0,1,1,.5-0.86,96.56,96.56,0,0,1,9.93,6.61A0.5,0.5,0,0,1,244.12,187Z"/><path class="cls-3" d="M240.68,189.54a0.5,0.5,0,0,1-.28-0.09c-1.36-.92-7.4-4.06-7.46-4.09a0.5,0.5,0,0,1,.46-0.89c0.25,0.13,6.15,3.19,7.56,4.15A0.5,0.5,0,0,1,240.68,189.54Z"/><path class="cls-3" d="M353,206.06s-4.12,4.71-8.95,9.58c-10.37-6.08-14.42-20.29-15.6-25.66l1.88-3.2Z"/><path class="cls-4" d="M328.05,187.87s22.67-54.16,40.32-49c0,0,26.61,19.91-11.58,72.76A58.86,58.86,0,0,1,328.05,187.87Z"/><path class="cls-6" d="M356.78,212.12l-0.16,0a59.9,59.9,0,0,1-29-24,0.5,0.5,0,0,1,0-.45c0.79-1.89,19.55-46.29,36.45-49.48a0.5,0.5,0,0,1,.19,1c-15.76,3-34.1,45.09-35.62,48.64a59.07,59.07,0,0,0,28,23.2,154.45,154.45,0,0,0,10.13-15.92,0.5,0.5,0,1,1,.88.48,155.89,155.89,0,0,1-10.41,16.33A0.5,0.5,0,0,1,356.78,212.12Z"/><path class="cls-6" d="M360,203.84a0.5,0.5,0,0,1-.23-0.05c-17.85-9.06-25.39-22.88-25.46-23a0.5,0.5,0,1,1,.88-0.47c0.07,0.14,7.48,13.68,25,22.59A0.5,0.5,0,0,1,360,203.84Z"/><path class="cls-6" d="M334.7,79.32c-10.36.93-13.12,24.8-11.67,28.51s16.11,1.9,18.46.72,5.25-9.5,6.06-15S346.74,78.23,334.7,79.32Z"/><path class="cls-3" d="M344.3,99.82l0.07-3.39s-3.33-3.19-2.31-7c0,0-13.71,5.63-23-1.83A12.65,12.65,0,0,1,323,84.27s-8.11-7.34-6.45-17.85c0.61-3.87,10.45,1.09,13.51,5.9,0,0-2.6-10.33,2.58-15.75,1.49-1.56,7.87,6.72,9.57,14.46,0,0,1.27-6.08,3.87-8.28,0.88-.75,4.14,5.16,4.21,14.12,0,0,6.79,4.14,9.16,11.06s-1.7,16.22-15.47,16.9Z"/><path class="cls-6" d="M344.3,99.82s4-7.67,8.69-5-1.36,11.81-10,10.59Z"/><path class="cls-3" d="M345.72,103.78h-0.07a0.5,0.5,0,0,1-.43-0.56c0-.06,1-6.47,6.36-6.54h0a0.5,0.5,0,0,1,0,1c-4.54.06-5.37,5.62-5.38,5.68A0.5,0.5,0,0,1,345.72,103.78Z"/><path class="cls-3" d="M349.32,102.79a0.5,0.5,0,0,1-.49-0.42,10.17,10.17,0,0,0-1.23-3.46,0.5,0.5,0,0,1,.82-0.57,11,11,0,0,1,1.4,3.88,0.5,0.5,0,0,1-.42.57h-0.08Z"/><path class="cls-3" d="M329.72,101.37h-0.1A3.41,3.41,0,0,1,327,98.87a0.5,0.5,0,0,1,.26-0.53c1.66-.89,3.31-3.64,3.33-3.67a0.5,0.5,0,1,1,.86.51A13.83,13.83,0,0,1,328.07,99a2.63,2.63,0,0,0,1.75,1.36A0.5,0.5,0,0,1,329.72,101.37Z"/><path class="cls-3" d="M332.32,105.34a9.15,9.15,0,0,1-4.79-1.24,0.5,0.5,0,0,1,.55-0.83,8.82,8.82,0,0,0,6,.91,0.5,0.5,0,1,1,.18,1A11,11,0,0,1,332.32,105.34Z"/><path class="cls-3" d="M335.06,92.33s0.66-1.91,1.24-2.15,0.39,0.71.39,0.71,4.06,0.26,3.48,4.26C340.17,95.16,339,92.57,335.06,92.33Z"/><path class="cls-3" d="M330.54,91.05a7.2,7.2,0,0,0,.44-2.47c-0.2-.54-0.58.33-0.58,0.33s-2.38-2.25-4.14,1.29C326.25,90.21,328.22,88.84,330.54,91.05Z"/><ellipse class="cls-3" cx="335.24" cy="96.62" rx="1.93" ry="1.55" transform="translate(150.02 392.28) rotate(-74.01)"/><circle class="cls-8" cx="334.7" cy="96.02" r="0.53" transform="translate(42.21 284.94) rotate(-48.87)"/><ellipse class="cls-3" cx="327.49" cy="94.08" rx="1.93" ry="1.55" transform="translate(146.85 383) rotate(-74.01)"/><circle class="cls-8" cx="326.96" cy="93.48" r="0.53" transform="translate(41.47 278.24) rotate(-48.87)"/></svg>