<svg id="GROUND" xmlns="http://www.w3.org/2000/svg" viewBox="0 0 500 500"><defs><style>.cls-1{fill:#404b7c;}.cls-2{fill:#9ab3da;}.cls-3{fill:#ecbdbb;}.cls-4{fill:#f68d88;}.cls-5{fill:#fff;}.cls-6{fill:#f8f8f8;}</style></defs><title>Get started</title><path class="cls-1" d="M325.32,462.93H279.1a0.5,0.5,0,0,1,0-1h46.22A0.5,0.5,0,0,1,325.32,462.93Z"/><path class="cls-1" d="M197.61,462.93H151.4a0.5,0.5,0,0,1,0-1h46.22A0.5,0.5,0,0,1,197.61,462.93Z"/><path class="cls-1" d="M296.26,466h-72.1a0.5,0.5,0,1,1,0-1h72.1A0.5,0.5,0,1,1,296.26,466Z"/><path class="cls-1" d="M147.79,466H129.08a0.5,0.5,0,0,1,0-1h18.71A0.5,0.5,0,1,1,147.79,466Z"/><path class="cls-2" d="M160.28,267.54s16.92,19.37,57.33,16.58,51.68-25,51.68-25l-9.77-45.25-82.26,10.47Z"/><path class="cls-3" d="M240.79,418.85l-0.65,15a7.45,7.45,0,0,1-7.45,0l-1.12-16.11Z"/><path class="cls-1" d="M227.11,447a50,50,0,0,0,1.21,14.36h3.26s1.49-8.78,3.17-12.69S228.69,443.53,227.11,447Z"/><path class="cls-4" d="M231.57,431.61s3.54,1.77,9.68,0c0,0,10.06,16.95,13.5,20s11,6.42,13.59,7.82-17.32,2.42-22,1.58-8.57-6.7-12.48-9.87a26,26,0,0,0-6.8-4.19S228.13,438.31,231.57,431.61Z"/><path class="cls-1" d="M256,218.38s6.05,31.75,5.21,44.88-8.1,69-8.1,69l-9.22,88s-10.47,2-15.36-.7c0,0-1.54-24.58-3.21-37.43s0-25.14,1.12-35.34c0,0-7.12-42.46-8.8-79.89s3.35-58.1,17.88-59.5S256,218.38,256,218.38Z"/><path class="cls-2" d="M233.25,417.77a0.5,0.5,0,0,1-.5-0.45c-0.14-1.34-3.54-32.9-3.35-40.66s2.4-29.43,2.42-29.65l-6-81.43a0.5,0.5,0,1,1,1-.07l6,81.52c0,0.3-2.24,21.94-2.42,29.66s3.31,40.2,3.35,40.53a0.5,0.5,0,0,1-.44.55h-0.05Z"/><path class="cls-3" d="M177.74,418.85L176,435a7.45,7.45,0,0,1-7.45,0V417.73Z"/><path class="cls-1" d="M162.93,448.09a50,50,0,0,0,1.21,14.36h3.26s1.49-8.78,3.17-12.69S164.52,444.64,162.93,448.09Z"/><path class="cls-4" d="M167.4,432.73s3.54,1.77,9.68,0c0,0,10.06,16.95,13.5,20s11,6.42,13.59,7.82-17.32,2.42-22,1.58-8.57-6.7-12.48-9.87a26,26,0,0,0-6.8-4.19S164,439.43,167.4,432.73Z"/><path class="cls-1" d="M224.94,235.89l-2.44,32.87s-21.65,62.94-26.12,76.63S182,418.2,182,418.2s-3,2.74-9.5,2.74-8-3.11-8-3.11-1.4-44.51,0-56,5.87-28.77,6.15-36.87-0.28-52.51,1.68-71,10.61-46.87,30.59-46.76S225.91,222.83,224.94,235.89Z"/><path class="cls-2" d="M169.38,416.46h0a0.5,0.5,0,0,1-.49-0.51c0-.27.38-27.17,0.93-41.17,0.42-10.76,2.47-24.37,3.82-33.37,0.43-2.86.8-5.33,1-7.08,0.85-6.59,2.6-20.3,2.6-31,0-10.51,4.24-65.59,4.28-66.15a0.49,0.49,0,0,1,.54-0.46,0.5,0.5,0,0,1,.46.54c0,0.55-4.28,55.6-4.28,66.07,0,10.8-1.76,24.55-2.61,31.16-0.23,1.76-.6,4.24-1,7.11-1.35,9-3.39,22.56-3.81,33.26-0.55,14-.93,40.87-0.93,41.14A0.5,0.5,0,0,1,169.38,416.46Z"/><path class="cls-2" d="M222.5,269.26a0.5,0.5,0,0,1-.32-0.88l3.84-3.21a7.73,7.73,0,0,0,2.75-5.47l1.48-26.34a0.5,0.5,0,1,1,1,.06l-1.48,26.34a8.73,8.73,0,0,1-3.1,6.19l-3.84,3.21A0.5,0.5,0,0,1,222.5,269.26Z"/><path class="cls-2" d="M222.5,269.26h0a0.5,0.5,0,0,1-.46-0.53l2.44-34.61a0.49,0.49,0,0,1,.53-0.46,0.5,0.5,0,0,1,.46.53L223,268.79A0.5,0.5,0,0,1,222.5,269.26Z"/><path class="cls-4" d="M246.24,115.92s9.36,9.36,20.16,50.51l-1.12,22.63s-7.59,3.4-12.06,1.72S244.7,177.93,241.35,156A78.1,78.1,0,0,1,246.24,115.92Z"/><path class="cls-1" d="M263.49,165.5a24.32,24.32,0,0,0-5,21.37c2.27,9.42,8.71,10.89,8.71,10.89l7.08-3.82s3.68-9.17,2.93-18.11S272.54,162,272.54,162Z"/><path class="cls-3" d="M333.12,150c1.1-1.78.86-3-.38-2.54-0.56.19-1.78,0.75-3.18,1.44,1-1.86.17-3.32-1.43-2.6a18.48,18.48,0,0,0-1.91,1.11c0.14-1.41-.78-2.19-2-1.42a66.82,66.82,0,0,0-5.74,4.94l-2.64-.4a36.5,36.5,0,0,0,2.38-4.51c0.28-1.07-.37-2-1.07-1.68-0.5.27-5.94,5.24-9,8.09-2.64,1.23-5.16,2.52-5.16,2.52L271.38,166.1s-3.91,11-.56,20.76c0,0,35.38-26.07,37.8-27.19s16.85-1.86,18.72-2.42,7.64-6.15,8-7.45C335.5,149.27,334.47,149.5,333.12,150Z"/><path class="cls-1" d="M327.28,153.08h-0.09l-8.81-1.68a0.5,0.5,0,0,1,.19-1l8.66,1.65,5.7-2.54a0.5,0.5,0,1,1,.41.91l-5.84,2.6A0.5,0.5,0,0,1,327.28,153.08Z"/><path class="cls-1" d="M326.41,151.56a0.5,0.5,0,0,1-.29-0.91l3.16-2.19a0.5,0.5,0,0,1,.57.82l-3.16,2.19A0.5,0.5,0,0,1,326.41,151.56Z"/><path class="cls-1" d="M323.08,150.47a0.5,0.5,0,0,1-.32-0.89L325.9,147a0.5,0.5,0,0,1,.64.77l-3.14,2.59A0.5,0.5,0,0,1,323.08,150.47Z"/><path class="cls-2" d="M217.61,104.46L197.22,122.2S176.27,225.83,177.1,225.83s28.12,8.66,52.89,3.91,29.24-11.17,29.24-11.17l-12-67-2.65-33Z"/><path class="cls-1" d="M214,231.65a141.52,141.52,0,0,1-35.54-5c-0.66-.17-1.23-0.32-1.35-0.33a0.49,0.49,0,0,1-.49-0.5,0.51,0.51,0,0,1,.51-0.5,9.68,9.68,0,0,1,1.57.37c24.46,6.36,41.36,5.45,51.22,3.55,24.29-4.66,28.88-10.9,28.92-11a0.5,0.5,0,1,1,.82.57c-0.19.27-4.87,6.65-29.55,11.38A85.73,85.73,0,0,1,214,231.65Z"/><path class="cls-1" d="M204.67,224.89c-9.15,0-15.45-.59-15.61-0.61a0.5,0.5,0,1,1,.1-1c0.4,0,40.2,3.76,65.67-7.78a0.5,0.5,0,0,1,.41.91C239.65,223.49,218.78,224.89,204.67,224.89Z"/><path class="cls-4" d="M217.61,186.17c-2.42,42.27-18.44,77.1-18.44,77.1-15.83,8.94-38.89,4.28-38.89,4.28s15.06-60.7,18.78-85.29,6.57-60.89,6.57-60.89,15.43-13.53,26.41-17.69c-0.5,5.22-2.36,26.82-.49,42.27C213.7,163.63,217.61,186.17,217.61,186.17Z"/><path class="cls-4" d="M222.5,103.68a129.36,129.36,0,0,1,23.74,12.24v6.84s5.87,19.55,6.15,23-2.65,15.64-2.65,15.64,17.6,68,19.55,97.63a131.9,131.9,0,0,1-21.37-3.21s0-25.37-.88-44.18a193.27,193.27,0,0,0-3.91-31.47S232.51,135.89,230,126.58,222.5,103.68,222.5,103.68Z"/><path class="cls-3" d="M255.79,186.59a0.43,0.43,0,0,1-.42-0.33c-3.34-14.21-6-24.6-6.05-24.71a0.43,0.43,0,0,1,0-.21c0-.12,2.91-12.12,2.64-15.51s-6.07-22.76-6.13-23a0.42,0.42,0,0,1,0-.12v-4.82a0.43,0.43,0,1,1,.86,0v4.75c0.42,1.41,5.87,19.64,6.14,23.07s-2.33,14.4-2.64,15.67c0.29,1.12,2.87,11.17,6,24.62a0.43,0.43,0,0,1-.32.52h-0.1Z"/><path class="cls-4" d="M215.56,100c-5.63.88-10.52,13.41-12.62,24.49l6.31,5.77-6.31,11.17s9.45,23.65,14.66,44.69c0,0-2.42-34.26-4.1-53.17,0.33-19.41,9.26-20.12,16.48-1.86,7,20.21,13.13,49.07,13.13,49.07s0.74-28.86-.74-44.41l-9.31-7.17,2.79-7.26S226.27,98.36,215.56,100Z"/><path class="cls-3" d="M243.12,180.64h0a0.43,0.43,0,0,1-.42-0.44c0-.29.72-28.79-0.73-44.18L232.8,129a0.43,0.43,0,0,1-.14-0.49l2.73-7.1a69.61,69.61,0,0,0-8-13.72,0.43,0.43,0,0,1,.68-0.53,70.86,70.86,0,0,1,8.13,14.07,0.43,0.43,0,0,1,0,.32l-2.68,7,9.06,7a0.43,0.43,0,0,1,.17.3c1.48,15.4.75,44.18,0.75,44.47A0.43,0.43,0,0,1,243.12,180.64Z"/><path class="cls-3" d="M215.46,178.56a0.43,0.43,0,0,1-.41-0.31c-5.23-18.36-12.43-36.43-12.5-36.61a0.43,0.43,0,0,1,0-.37l6.14-10.88-6.06-5.54a0.43,0.43,0,0,1-.13-0.4,64.78,64.78,0,0,1,6-18.12,0.43,0.43,0,1,1,.75.41,63.65,63.65,0,0,0-5.87,17.64l6.13,5.61a0.43,0.43,0,0,1,.08.53l-6.21,11c0.79,2,7.5,19.12,12.45,36.5a0.43,0.43,0,0,1-.29.53Z"/><path class="cls-4" d="M185.63,121.36c-6.35,5.12-10.95,22.17,0,35.48,9.79,11.9,35.89,35.61,41.61,36.73s11.45-6.15,11.45-6.15,0.56-16.18-1.26-19.61a7,7,0,0,0-4.75-3.85l-3.77,2.23s-16.33-24-24.86-32.54A58.85,58.85,0,0,0,185.63,121.36Z"/><path class="cls-3" d="M228.48,194.12a6.87,6.87,0,0,1-1.32-.13c-5.94-1.16-31.67-24.77-41.29-36.19a0.43,0.43,0,1,1,.66-0.55c10.46,12.41,35.35,34.84,40.8,35.9,5,1,10.21-5,10.95-5.88,0-1.61.44-16.12-1.21-19.25a6.71,6.71,0,0,0-4.29-3.6l-3.63,2.15a0.43,0.43,0,0,1-.57-0.13c-0.16-.24-16.41-24.09-24.8-32.48a58.77,58.77,0,0,0-13.17-9.74,0.43,0.43,0,0,1,.41-0.75,59.66,59.66,0,0,1,13.36,9.89c7.91,7.9,22.67,29.33,24.68,32.27l3.42-2a0.43,0.43,0,0,1,.28-0.06,7.41,7.41,0,0,1,5.07,4.08c1.85,3.5,1.33,19.16,1.31,19.83a0.43,0.43,0,0,1-.09.25C238.81,188,233.9,194.12,228.48,194.12Z"/><path class="cls-1" d="M229.23,164.36l8.82-5.56s5.6,2.16,7.35,10.54-1,17.74-1,17.74-8.25,6.43-8.25,6.22a23.79,23.79,0,0,1-8.89-11.92C224.15,172.65,229.23,164.36,229.23,164.36Z"/><path class="cls-3" d="M238.13,162.88l37-19.55s9.06-7.43,13-9.59,5.59-1.82,5.45-.77-4.19,3.84-4.82,5.94,3.3,1.4,4.83,1.12,9.56-3,12.14-4.05,2.65,1.12,2,2.23-4.05,2.72-4.05,2.72a10.08,10.08,0,0,1-2.28,3.65,5.88,5.88,0,0,1-2.51,3.21,15.06,15.06,0,0,1-2.84,3.26c-1.4,1-17.35,1-19.41,1.3s-27.29,24.77-33.43,30.54C243.21,182.9,233.86,176.76,238.13,162.88Z"/><path class="cls-1" d="M295.31,144.86a0.5,0.5,0,0,1-.19-1c2-.79,6.46-2.7,6.46-2.7l0.39,0.92s-4.52,1.91-6.48,2.7A0.5,0.5,0,0,1,295.31,144.86Z"/><path class="cls-1" d="M295,147.75a0.5,0.5,0,0,1-.15-1,47.52,47.52,0,0,0,5-2,0.5,0.5,0,0,1,.43.9,47.78,47.78,0,0,1-5.09,2.07Z"/><path class="cls-1" d="M293.31,150.21a0.5,0.5,0,0,1-.11-1,32.55,32.55,0,0,0,4.15-1.46,0.5,0.5,0,1,1,.39.92,32.78,32.78,0,0,1-4.32,1.52h-0.11Z"/><path class="cls-1" d="M204.48,67S200.43,59.21,194,57.6s-10.68,5-11.52,13.06,5.15,14.84,14,7.19C203.5,71.85,204.48,67,204.48,67Z"/><path class="cls-1" d="M202.8,67.1S192.54,72.69,193.66,82s17.46,16.62,26.26,11.31,6.63-12.92,6.63-12.92,7.75-.7,7.89-8.17-3.7-8.8-7.68-8c0,0,1.47-9.29-7.12-10.13S204.55,57.88,202.8,67.1Z"/><path class="cls-2" d="M193.81,78.78h-0.1a0.5,0.5,0,0,1-.39-0.59c1.47-7.19,8.93-11.34,9.24-11.51a0.5,0.5,0,0,1,.48.88c-0.07,0-7.36,4.1-8.74,10.84A0.5,0.5,0,0,1,193.81,78.78Z"/><path class="cls-3" d="M230,131.14a12.65,12.65,0,0,1-5.4,7.35c-6-.46-11.08-5.49-11.08-5.49V113.35c-0.07-5.35-1.31-18.23-1.78-22.93l-0.18-1.74,9.22,2s0.2,4.35.58,9.18c0.37,4.6.93,9.66,1.65,11.84C224.5,116.14,230,131.14,230,131.14Z"/><path class="cls-1" d="M221.35,99.83c-5.31-1.64-8.15-5.93-9.62-9.41l-0.18-1.74,9.22,2S221,95,221.35,99.83Z"/><path class="cls-3" d="M224.87,71.78a32.66,32.66,0,0,1,4.26,14.94c0.21,8.45-6.49,9.36-13.27,6.49s-11-12.57-11-12.57-3.07-8.38,2.58-12.22A12.24,12.24,0,0,1,224.87,71.78Z"/><path class="cls-1" d="M208.32,71.08s9,7.12,20.18,2.44c0,0-8.24-15.5-21.37-8s-6.84,18.16.28,19.83C207.41,85.4,211.32,80.79,208.32,71.08Z"/><path class="cls-3" d="M212,89l-3.31-4.75s-3.49-3.17-6.8-1.12S202.11,94.41,212,89Z"/><path class="cls-1" d="M209.86,87.71a0.5,0.5,0,0,1-.31-0.11,10.08,10.08,0,0,0-6.55-2,0.5,0.5,0,1,1-.1-1,11,11,0,0,1,7.27,2.16A0.5,0.5,0,0,1,209.86,87.71Z"/><path class="cls-1" d="M205.84,89.06a0.5,0.5,0,0,1-.49-0.39,10,10,0,0,1-.08-3.38,0.5,0.5,0,1,1,1,.15,9.05,9.05,0,0,0,.06,3,0.5,0.5,0,0,1-.38.6h-0.11Z"/><path class="cls-4" d="M208.83,98.4c-1.81,0-3.22-2.24-3.22-5.11a7.48,7.48,0,0,1,.53-2.83,0.5,0.5,0,1,1,.92.38,6.48,6.48,0,0,0-.45,2.45c0,2.23,1,4.11,2.22,4.11s2.22-1.88,2.22-4.11-1-4.11-2.22-4.11a0.5,0.5,0,0,1,0-1c1.81,0,3.22,2.24,3.22,5.11S210.64,98.4,208.83,98.4Z"/><path class="cls-1" d="M211.51,79.1s0.53-3.72,3.37-3.3a0.83,0.83,0,0,1,.46-1c0.63-.22,1.35,1.74,1.35,1.74A14.48,14.48,0,0,0,211.51,79.1Z"/><path class="cls-1" d="M225.69,76.14s-1.27-3.2-2.85-1.68a0.78,0.78,0,0,0-.68-0.52c-0.75.11-.28,2-0.28,2A6.09,6.09,0,0,1,225.69,76.14Z"/><ellipse class="cls-1" cx="216.2" cy="81.75" rx="1.41" ry="1.75" transform="translate(-14.28 64.25) rotate(-16.37)"/><circle class="cls-5" cx="216.32" cy="81.07" r="0.38" transform="translate(-14.08 64.26) rotate(-16.37)"/><ellipse class="cls-1" cx="224.18" cy="79.41" rx="1.41" ry="1.75" transform="translate(-13.29 66.4) rotate(-16.37)"/><circle class="cls-5" cx="224.31" cy="78.73" r="0.38" transform="translate(-13.1 66.41) rotate(-16.37)"/><path class="cls-1" d="M221.67,86.23a0.5,0.5,0,0,1,0-1c0.06,0,1.53-.08,1.61-1.09a0.3,0.3,0,0,0-.07-0.3,2.29,2.29,0,0,0-1.51,0,0.5,0.5,0,0,1-.61-0.34l-1-3.27a0.5,0.5,0,1,1,1-.29l0.85,2.83a2.51,2.51,0,0,1,1.94.3,1.27,1.27,0,0,1,.43,1.16c-0.13,1.5-1.74,2-2.57,2h0Z"/><path class="cls-1" d="M220.75,90.33a7.66,7.66,0,0,1-3.82-1.08,0.5,0.5,0,1,1,.49-0.87c3.48,2,6,.24,6,0.22a0.5,0.5,0,1,1,.58.81A5.87,5.87,0,0,1,220.75,90.33Z"/><circle class="cls-2" cx="158.88" cy="96.57" r="22"/><circle class="cls-6" cx="159.96" cy="84.24" r="3.98"/><path class="cls-6" d="M151.85,99.08a0.35,0.35,0,0,1-.43-0.48c1.18-2.66,7.78-8.36,12.48-8.17,2.11,0.09-2.93,14.06-2.9,16,0,1.44,3.22.18,4.9-.59a0.36,0.36,0,0,1,.42.54c-1.25,2-5.39,6.2-9.53,6.48-5.55.38-.58-15.28-0.58-15.28Z"/><path class="cls-4" d="M286.84,74.48c-11.17-4.19-14.22-14.28-9.22-17.69,4.56-3.11,9.22,2.23,9.22,2.23s4.65-5.34,9.22-2.23C301.05,60.2,298,70.29,286.84,74.48Z"/><path class="cls-4" d="M369.47,55.82c-5.59-2.09-7.11-7.14-4.61-8.84,2.28-1.55,4.61,1.12,4.61,1.12s2.32-2.67,4.61-1.12C376.57,48.68,375.05,53.72,369.47,55.82Z"/><path class="cls-4" d="M389.58,139.3c-9.42-3.53-12-12-7.77-14.91,3.84-2.62,7.77,1.88,7.77,1.88s3.92-4.5,7.77-1.88C401.56,127.27,399,135.77,389.58,139.3Z"/><path class="cls-2" d="M343.06,168.2a4.06,4.06,0,1,1,4.06-4.06A4.07,4.07,0,0,1,343.06,168.2Zm0-7.12a3.06,3.06,0,1,0,3.06,3.06A3.06,3.06,0,0,0,343.06,161.07Z"/><path class="cls-2" d="M319.55,57.75a4.06,4.06,0,1,1,4.06-4.06A4.07,4.07,0,0,1,319.55,57.75Zm0-7.12a3.06,3.06,0,1,0,3.06,3.06A3.06,3.06,0,0,0,319.55,50.62Z"/><path class="cls-2" d="M375.9,107.65A3.05,3.05,0,1,1,379,104.6,3.06,3.06,0,0,1,375.9,107.65Zm0-5.11A2.05,2.05,0,1,0,378,104.6,2.06,2.06,0,0,0,375.9,102.55Z"/><path class="cls-2" d="M380.78,71.82a0.5,0.5,0,0,1-.5-0.5v-5.8a0.5,0.5,0,1,1,1,0v5.8A0.5,0.5,0,0,1,380.78,71.82Z"/><path class="cls-2" d="M386.82,74.09h-4.34a0.5,0.5,0,0,1,0-1h4.34A0.5,0.5,0,0,1,386.82,74.09Z"/><path class="cls-2" d="M380.78,82.16a0.5,0.5,0,0,1-.5-0.5v-5.8a0.5,0.5,0,0,1,1,0v5.8A0.5,0.5,0,0,1,380.78,82.16Z"/><path class="cls-2" d="M379.08,74.09h-4.34a0.5,0.5,0,0,1,0-1h4.34A0.5,0.5,0,0,1,379.08,74.09Z"/><path class="cls-2" d="M363.83,146.43a0.5,0.5,0,0,1-.5-0.5v-5.8a0.5,0.5,0,0,1,1,0v5.8A0.5,0.5,0,0,1,363.83,146.43Z"/><path class="cls-2" d="M369.87,148.7h-4.34a0.5,0.5,0,0,1,0-1h4.34A0.5,0.5,0,0,1,369.87,148.7Z"/><path class="cls-2" d="M363.83,156.77a0.5,0.5,0,0,1-.5-0.5v-5.8a0.5,0.5,0,0,1,1,0v5.8A0.5,0.5,0,0,1,363.83,156.77Z"/><path class="cls-2" d="M362.13,148.7h-4.34a0.5,0.5,0,0,1,0-1h4.34A0.5,0.5,0,0,1,362.13,148.7Z"/><path class="cls-2" d="M291.76,99.55a0.5,0.5,0,0,1-.5-0.5v-5.8a0.5,0.5,0,0,1,1,0v5.8A0.5,0.5,0,0,1,291.76,99.55Z"/><path class="cls-2" d="M297.8,101.82h-4.34a0.5,0.5,0,0,1,0-1h4.34A0.5,0.5,0,0,1,297.8,101.82Z"/><path class="cls-2" d="M291.76,109.89a0.5,0.5,0,0,1-.5-0.5v-5.8a0.5,0.5,0,1,1,1,0v5.8A0.5,0.5,0,0,1,291.76,109.89Z"/><path class="cls-2" d="M290.06,101.82h-4.34a0.5,0.5,0,0,1,0-1h4.34A0.5,0.5,0,0,1,290.06,101.82Z"/><rect class="cls-2" x="318.44" y="67.92" width="44.27" height="57.3" rx="2.67" ry="2.67"/><rect class="cls-1" x="313.92" y="72.44" width="44.27" height="57.3" rx="2.67" ry="2.67"/><rect class="cls-2" x="309.17" y="77.28" width="44.27" height="57.3" rx="2.67" ry="2.67"/><rect class="cls-6" x="313.24" y="89.64" width="36.13" height="3.54" rx="1.58" ry="1.58"/><rect class="cls-6" x="313.24" y="99.32" width="36.13" height="3.54" rx="1.58" ry="1.58"/><rect class="cls-6" x="313.24" y="109.01" width="36.13" height="3.54" rx="1.58" ry="1.58"/><rect class="cls-6" x="313.24" y="118.69" width="16.66" height="3.54" rx="1.58" ry="1.58"/></svg>