<!DOCTYPE svg PUBLIC "-//W3C//DTD SVG 1.1//EN" "http://www.w3.org/Graphics/SVG/1.1/DTD/svg11.dtd">
<svg id="a53a79d7-43f0-49c5-9ae7-132b2571026b" data-name="Layer 1" xmlns="http://www.w3.org/2000/svg" width="865.76"
     height="682.89" viewBox="0 0 865.76 682.89">

    <defs>

        <style xmlns="http://www.w3.org/1999/xhtml">*, ::after, ::before { box-sizing: border-box; }
            img, svg { vertical-align: middle; }
        </style>

        <style xmlns="http://www.w3.org/1999/xhtml">*, body, html { }
            img, svg { max-width: 100%; }
        </style>

    </defs>

    <rect x="387.74" y="588.01" width="8.68" height="11.71" fill="#f9b499"/>

    <polygon points="442.42 580.99 445.12 592.21 455.23 592.21 449.84 579.41 442.42 580.99" fill="#f9b499"/>

    <path d="M366.49,608.16h0a5.16,5.16,0,0,1,5.16-5.16h6.74a5.51,5.51,0,0,0,4.5-3.28s2.69-6.38,5.84-4.14c0,0,2,.45,1.35,3.15h6.12a3.34,3.34,0,0,1,3.08,2,16.76,16.76,0,0,1,.91,7.39h-8.11L391,605l-.67,3.14Z"
          fill="#0071f2" data-primary="true"/>

    <path d="M444.67,603a7.27,7.27,0,0,1,0-6.52s-1.57-9.43,6.85-6.85v1.46l2.06-.12a2.48,2.48,0,0,1,2.4,1.4c.39.8.87,1.82,1.29,2.79a3,3,0,0,1-1.56,3.84C453.7,599.87,450.25,601.21,444.67,603Z"
          fill="#0071f2" data-primary="true"/>

    <rect x="514.88" y="132.66" width="11.8" height="34.04" rx="5.29" fill="#d1d3d4"/>

    <circle cx="594.47" cy="242.44" r="9.27" fill="#d1d3d4"/>

    <circle cx="661.19" cy="242.38" r="9.27" fill="#d1d3d4"/>

    <circle cx="711.35" cy="137.77" r="9.27" fill="#d1d3d4"/>

    <circle cx="627.4" cy="275.68" r="6.55" fill="#d1d3d4"/>

    <circle cx="747.41" cy="181.27" r="9.27" fill="#d1d3d4"/>

    <rect x="573.8" y="398.88" width="287.98" height="186.13" fill="#e1e1e1"/>

    <rect x="591.11" y="411.49" width="270.67" height="158.25" fill="#ddd"/>

    <rect x="750.25" y="411.49" width="0.39" height="158.25" fill="#e1e1e1"/>

    <rect x="591.11" y="446.41" width="270.67" height="0.39" fill="#e1e1e1"/>

    <rect x="591.11" y="483.28" width="270.67" height="0.39" fill="#e1e1e1"/>

    <path d="M678.15,594.3,683,609.68s6.57,5.06,9.27,0l-1.7-16.18Z" fill="#ffbf9d"/>

    <polygon points="710.1 591.16 717.25 608.16 726.18 608.5 722.16 585.01 710.1 591.16" fill="#ffbf9d"/>

    <rect x="530.21" y="605.81" width="9.77" height="13.31" fill="#f9b499"/>

    <polygon points="585.78 604.57 587.3 619.12 596.43 618.22 594.88 603 585.78 604.57" fill="#f9b499"/>

    <path d="M528.53,628.22v-6.83a3.79,3.79,0,0,1,3.79-3.79h1.09s4.05-6.4,7.75,0c0,0,.54,3.64,2.34,5.73a2.9,2.9,0,0,1,.7,1.91h0a3,3,0,0,1-3,3Z"
          fill="#0071f2" data-primary="true"/>

    <path d="M583.31,628.22s-.18-12.47,5.88-10.57a4.25,4.25,0,0,0,4.55-.2s4.17-7,6.26-1.89c0,0,3.41,6.26,9.67,7.21l6.9.26a3.26,3.26,0,0,1,3.14,3.26v1.93H594.12l-1.56-3.37v3.37Z"
          fill="#0071f2" data-primary="true"/>

    <path d="M547.57,319.92v-10.8s-7.75-2.35,0-6.95c0,0,14.16-8.43,26.23-4.5,0,0,3.54,2.7,1,9.22,0,0,4.28,4.94-1.45,13.59l-.68-7.75-14-1.13-3,13.15-4.38-1.46Z"
          fill="#2f2e41" data-secondary="true"/>

    <path d="M550.64,325.16S548,338.64,541,344.24l9,3.82,12.77-1.79-1.84-11.92s11.73,6.3,12.43-14.71a20.46,20.46,0,0,0,0-8.58s-3.3,2.12-6-1.85c0,0-9.47-.75-9.79,2.17,0,0-2.12,17-3.92,11.46a10.18,10.18,0,0,0,.28-3.8,3.67,3.67,0,0,0-6.52-1.8,3.87,3.87,0,0,0-.27.43S545,320.85,550.64,325.16Z"
          fill="#f9b499"/>

    <path d="M378.73,449.11s3,58.63,6.74,71.77c0,0-1.35,52.57,1.68,68.75H397.6s-.67-8.76,2.7-22.92c0,0,10.39-31.66,3.34-47.34l3.45-8.94s3.09,12.5,3.88,15.35l30.78,58.46,9.77-3.25s-6.4-43-24.6-66.91c0,0,9.1-36.31,2.36-65H377"
          fill="#2f2e41" data-secondary="true"/>

    <circle cx="96.16" cy="307.37" r="46.27" fill="#e1e1e1"/>

    <rect x="15.82" y="443.92" width="314.22" height="137.07" rx="58.06" fill="#e1e1e1"/>

    <rect x="15.82" y="443.92" width="50" height="137.07" rx="22.41" fill="#ddd"/>

    <rect x="280.04" y="443.92" width="50" height="137.07" rx="22.41" fill="#ddd"/>

    <rect x="148.38" y="454.05" width="50" height="203.88" rx="22.41" transform="translate(729.37 382.61) rotate(90)"
          fill="#ddd"/>

    <circle cx="40.72" cy="465.81" r="8.34" fill="#e1e1e1"/>

    <circle cx="40.72" cy="465.81" r="5.9" fill="#ddd"/>

    <circle cx="305.04" cy="465.9" r="8.34" fill="#e1e1e1"/>

    <circle cx="305.04" cy="465.9" r="5.9" fill="#ddd"/>

    <circle cx="96.16" cy="307.37" r="41.88" fill="#fff"/>

    <path d="M111.25,320.23l-11.13-11.14a4.44,4.44,0,0,0-2.56-6.52v-21.3a1.58,1.58,0,0,0-3.15,0v21.54a4.44,4.44,0,0,0,1.89,8.46,4.53,4.53,0,0,0,1.34-.21L109,322.45a1.57,1.57,0,1,0,2.22-2.22Z"
          fill="#e1e1e1"/>

    <rect x="94.41" y="268.02" width="3.15" height="7.64" rx="1.41" fill="#e1e1e1"/>

    <rect x="103.76" y="268.95" width="3.15" height="7.64" rx="1.41" transform="translate(60.6 -16.19) rotate(12.31)"
          fill="#e1e1e1"/>

    <rect x="112.06" y="272.85" width="3.15" height="7.64" rx="1.41" transform="translate(153.56 -19.75) rotate(30)"
          fill="#e1e1e1"/>

    <rect x="119.45" y="278.62" width="3.15" height="7.64" rx="1.41" transform="translate(224.08 -7.04) rotate(42.79)"
          fill="#e1e1e1"/>

    <rect x="125.3" y="285.69" width="3.15" height="7.64" rx="1.41" transform="translate(314.16 34.88) rotate(60)"
          fill="#e1e1e1"/>

    <rect x="128.82" y="294.25" width="3.15" height="7.64" rx="1.41"
          transform="matrix(0.26, 0.97, -0.97, 0.26, 384.6, 95.02)" fill="#e1e1e1"/>

    <rect x="130.13" y="303.42" width="3.15" height="7.64" rx="1.41" transform="translate(438.94 175.54) rotate(90)"
          fill="#e1e1e1"/>

    <rect x="128.82" y="312.64" width="3.15" height="7.64" rx="1.41" transform="translate(463.95 239.73) rotate(99.44)"
          fill="#e1e1e1"/>

    <rect x="125.17" y="321.03" width="3.15" height="7.64" rx="1.41" transform="translate(471.44 377.5) rotate(120)"
          fill="#e1e1e1"/>

    <rect x="119.62" y="328.57" width="3.15" height="7.64" rx="1.41" transform="translate(436.43 493.01) rotate(137.03)"
          fill="#e1e1e1"/>

    <rect x="112.16" y="333.96" width="3.15" height="7.64" rx="1.41" transform="translate(396.64 554.55) rotate(146.07)"
          fill="#e1e1e1"/>

    <rect x="103.76" y="337.52" width="3.15" height="7.64" rx="1.41" transform="translate(255.53 665.45) rotate(172.29)"
          fill="#e1e1e1"/>

    <rect x="94.93" y="338.95" width="3.15" height="7.64" rx="1.41" transform="translate(193 685.53) rotate(-180)"
          fill="#e1e1e1"/>

    <rect x="85.57" y="338.02" width="3.15" height="7.64" rx="1.41" transform="translate(99.38 694.39) rotate(-167.68)"
          fill="#e1e1e1"/>

    <rect x="77.28" y="334.12" width="3.15" height="7.64" rx="1.41" transform="translate(-21.82 670.03) rotate(-150)"
          fill="#e1e1e1"/>

    <rect x="69.88" y="328.34" width="3.15" height="7.64" rx="1.41"
          transform="translate(-101.75 624.46) rotate(-137.21)" fill="#e1e1e1"/>

    <rect x="64.04" y="321.27" width="3.15" height="7.64" rx="1.41" transform="translate(-183.12 544.45) rotate(-120)"
          fill="#e1e1e1"/>

    <rect x="60.52" y="312.71" width="3.15" height="7.64" rx="1.41"
          transform="matrix(-0.26, -0.97, 0.97, -0.26, -227.61, 458.38)" fill="#e1e1e1"/>

    <rect x="59.21" y="303.54" width="3.15" height="7.64" rx="1.41" transform="translate(-246.58 368.15) rotate(-90)"
          fill="#e1e1e1"/>

    <rect x="60.52" y="294.32" width="3.15" height="7.64" rx="1.41" transform="translate(-242.19 310.5) rotate(-80.56)"
          fill="#e1e1e1"/>

    <rect x="64.17" y="285.94" width="3.15" height="7.64" rx="1.41" transform="translate(-218.07 201.81) rotate(-60)"
          fill="#e1e1e1"/>

    <rect x="69.72" y="278.39" width="3.15" height="7.64" rx="1.41" transform="translate(-173.23 124.3) rotate(-42.97)"
          fill="#e1e1e1"/>

    <rect x="77.18" y="273.01" width="3.15" height="7.64" rx="1.41" transform="translate(-141.11 91.09) rotate(-33.93)"
          fill="#e1e1e1"/>

    <rect x="85.57" y="269.44" width="3.15" height="7.64" rx="1.41" transform="translate(-35.89 14.17) rotate(-7.71)"
          fill="#e1e1e1"/>

    <rect x="3.98" y="176.13" width="184.68" height="7.08" fill="#e1e1e1"/>

    <rect x="85.2" y="134.38" width="11.12" height="44.03" fill="#e1e1e1"/>

    <rect x="74.08" y="139.06" width="11.12" height="37.07" fill="#ddd"/>

    <rect x="62.96" y="132.82" width="11.12" height="43.3" fill="#e1e1e1"/>

    <rect x="51.84" y="126.42" width="11.12" height="49.71" fill="#ddd"/>

    <rect x="40.72" y="139.06" width="11.12" height="37.07" fill="#e1e1e1"/>

    <rect x="22.29" y="138.44" width="11.12" height="37.07" transform="translate(68.87 2.92) rotate(24.97)"
          fill="#ddd"/>

    <rect x="192.7" y="250.27" width="184.68" height="7.08" fill="#e1e1e1"/>

    <rect x="286.35" y="207.81" width="11.12" height="42.46" transform="translate(583.82 458.08) rotate(-180)"
          fill="#ddd"/>

    <rect x="297.47" y="213.2" width="11.12" height="37.07" transform="translate(606.06 463.47) rotate(-180)"
          fill="#e1e1e1"/>

    <rect x="308.59" y="206.96" width="11.12" height="43.3" transform="translate(628.3 457.23) rotate(-180)"
          fill="#ddd"/>

    <rect x="319.71" y="200.56" width="11.12" height="49.71" transform="translate(650.54 450.83) rotate(-180)"
          fill="#e1e1e1"/>

    <rect x="330.83" y="213.2" width="11.12" height="37.07" transform="translate(672.78 463.47) rotate(-180)"
          fill="#ddd"/>

    <rect x="349.26" y="212.58" width="11.12" height="37.07" transform="translate(774.04 290.85) rotate(155.03)"
          fill="#e1e1e1"/>

    <path d="M129.24,157.59h18.54a0,0,0,0,1,0,0v10.23a8.31,8.31,0,0,1-8.31,8.31h-1.92a8.31,8.31,0,0,1-8.31-8.31V157.59A0,0,0,0,1,129.24,157.59Z"
          fill="#e1e1e1"/>

    <path d="M160.52,160.12h18.54a0,0,0,0,1,0,0v7.7a8.31,8.31,0,0,1-8.31,8.31h-1.92a8.31,8.31,0,0,1-8.31-8.31v-7.7A0,0,0,0,1,160.52,160.12Z"
          fill="#e1e1e1"/>

    <path d="M126.23,151.28s-3.36,4.65,1.06,7.83c0,0,9.91,8,21.76,0,0,0,4.18-3.17,1.81-6.6-.19-.26-.37-.53-.55-.8-1.18-1.8-5.22-7.88-6.43-8.42,0,0-1.06-.22-.78,2.23a2.18,2.18,0,0,1-2,2.47,1.8,1.8,0,0,1-1.8-1.35V142.7a3.12,3.12,0,0,0-3.12-3.12h0a3.12,3.12,0,0,0-3.11,3.12V147h-2.42a1.4,1.4,0,0,0-1.4,1.4v.56a1.38,1.38,0,0,1-1.14,1.36A2.72,2.72,0,0,0,126.23,151.28Z"
          fill="#d1d3d4"/>

    <path d="M160.52,155.57s-4.89-.17-4.55,5.56c0,0,.34,4.5,1.52,5.45,0,0,3.87-3.26,8.25-2.92,0,0,3.37,5.06,4.89-1a1.34,1.34,0,0,1,2.36,0s1.52,6.07,2.86,0c0,0,1.35-3,4.05,0,0,0,2.53,6.57,3.87,1.85V158a3.87,3.87,0,0,0-4.51-4h-.09A.2.2,0,0,1,179,154c-.18-.29-.65-1.18.15-1.62a1.54,1.54,0,0,0,.78-1.59c-.13-.71-.76-1.26-2.89-.46,0,0-3.31,3.28-3.87.77,0,0,1.57-4.2-1-4.87,0,0-2.81-.9-5.73,6.74,0,0-.4.58-.84-.46a2.37,2.37,0,0,0-3.46-1.12C161.24,152,160.52,153.18,160.52,155.57Z"
          fill="#d1d3d4"/>

    <rect x="238.2" y="239.82" width="43.81" height="10.45" fill="#ddd"/>

    <rect x="245.28" y="229.3" width="36.73" height="10.45" fill="#e1e1e1"/>

    <path d="M374.35,364.63s17.07-33.38,47.18-15.35c0,0,22.47,11.08,26.06,38.26H424.22s9.22,39,9.44,64.47a1.8,1.8,0,0,1-1.8,1.81H378.68a1.8,1.8,0,0,1-1.8-1.86l2.41-77.45Z"
          fill="#0071f2" data-primary="true"/>

    <path d="M380.41,364.34H387a4.64,4.64,0,0,1,4.45,3.36L407,422.38a3,3,0,0,1-2.87,3.8h-2.79Z" fill="#fafafa"/>

    <path d="M505.44,388.78h27S522,405.38,528,423.87c0,0,.68,11.51-1,20.05,0,0-3.71,7.38,3,6.95h47.18s6.74,1.69,3.37-6.95c0,0-10.11-16.39,2.36-55.14h10.79a54.43,54.43,0,0,0-31.68-47.09s.11,6.53-10.67,5c0,0-7.87.11-9-3.82C542.4,342.83,518.59,346.88,505.44,388.78Z"
          fill="#0071f2" data-primary="true"/>

    <path d="M509.41,388.78s-.63,3.05-1.27,7.51C505.83,412.42,526.55,421,536.31,408c3.47-4.65,7.38-10.2,11.71-16.83,0,0,4.71-2.59,6.51-13.76V363.73s2.7-6.74-2-4.5c0,0-10.56,8.32-9.89,26.4L528,398a.76.76,0,0,1-1.22-.6l4.17-8.59Z"
          fill="#f9b499"/>

    <path d="M526.2,449.11s-9.3,26.28,3.51,84.24c0,0-7.45,25.61-3.39,45.16l3.39,30h10.78s10.11-65.38,10.78-74.81l4-26.29,10.47,24.27s-5.73,10.78,6.74,38.41c0,0,10.78,28.31,12.13,38.42h11.79s-6.06-56.28-9.43-73.8c0,0-2.12-72.47-5.61-85.59Z"
          fill="#2f2e41" data-secondary="true"/>

    <path d="M592.37,388.78l.36,5.77s14.49-14,17.52-16.39c0,0-2.53-8.42,0-12,0,0,5.9-6.74,8.93-4.72a18.89,18.89,0,0,1-3.2,3.88l-3,5.05V374l8.08-.17,1.35-2.36s.13-7.06,4.74-8a2.94,2.94,0,0,1,3.41,2.16c.47,1.86.46,4.76-2.42,7.84,0,0-5.22,6.24-9.44,6.57,0,0-12.46,26.63-29.82,37.58,0,0-4.58,6.77-11.16-6.71.57-3.73,1.34-7.75,2.38-12,.88-3.62,1.86-7,2.88-10.1A47,47,0,0,1,592.37,388.78Z"
          fill="#f9b499"/>

    <polygon points="618.32 350.98 611.85 375.13 624.8 375.13 630.76 350.98 618.32 350.98" fill="#2f2e41"
             data-secondary="true"/>

    <path d="M647.48,421.33s-2-12.64-6.09-22.17c0,0,1.25-.47,2.19-2.81,0,0,1.87-6.87-.31-9.83a1.93,1.93,0,0,1-.16-.68,2.63,2.63,0,0,0-2.56-2.63,5.44,5.44,0,0,0-4.31,2.37s-3.59,2.66-1.09,14.37c0,0-.32,29.5,4.37,36.53,0,0,2.81,6.09,9.52,1.72,0,0,11.4-11.71,18.58-25.61l-1.4-18-6.87-3.19S649.67,415.4,647.48,421.33Z"
          fill="#f9b499"/>

    <path d="M708.33,400.33s7.91,49.44,6.39,74.21c0,0-5.06,7.08-3.79,14,0,0,1.26,2,2.1-3.71,0,0,1.86-1.51,1.86.84a39.58,39.58,0,0,1-1.7,7.47,2.17,2.17,0,0,0,1.38,2.86c1.75.53,4.15.22,5.71-4.26,0,0,2.36-3.71,1.35-17,0,0,5-59.09,1.18-76.38l-9.42,1Z"
          fill="#f9b499"/>

    <path d="M660.72,441.43s-21.49,46.76,17.94,154.27h12s-.17-47.86-8.26-64.71l2.36-12.43s15.84,51.52,26.62,75.45l11.46-4s-5.06-42.46-13.48-61.16c0,0,19.19-54.73-1.25-85.06Z"
          fill="#2f2e41" data-secondary="true"/>

    <path d="M667.2,627.37h0a4.8,4.8,0,0,1,2.53-4.22l8.44-4.53a7.35,7.35,0,0,0,3.45-4.06l1.9-5.51a.61.61,0,0,1,.75-.37l3.55,1.17a1.94,1.94,0,0,0,1.85-.35l1.17-1a1.61,1.61,0,0,1,2.47.54,13.86,13.86,0,0,1,1.36,5.83v11.29a1.18,1.18,0,0,1-1.18,1.18h0a1.18,1.18,0,0,1-1.18-1.18v-8.84l-4.82,7.76a4.82,4.82,0,0,1-4.09,2.26Z"
          fill="#0071f2" data-primary="true"/>

    <path d="M704.78,624.17s-2.19,3.71,2.19,3.2l13.81-2a3.22,3.22,0,0,0,2.61-2.27l2.79-9.36,2.14,9.23a1.2,1.2,0,0,0,1.16.92h0a1.19,1.19,0,0,0,1.18-1.26c-.23-3.59-1.08-13.82-3.65-17.67a1.11,1.11,0,0,0-1.66-.21l-1.08,1a4.1,4.1,0,0,1-3.4,1l-3.35-.55a1.1,1.1,0,0,0-1.28,1l-.37,6.87a5.25,5.25,0,0,1-2.25,4Z"
          fill="#0071f2" data-primary="true"/>

    <rect x="520.12" y="54.74" width="1.31" height="45.68" fill="#e1e1e1"/>

    <path d="M520.76,199.3l-25.52-25.6V124.63l25.52-25.14L545.86,125V173.7Zm-24.21-26.14,24.2,24.28,23.8-24.27V125.51l-23.8-24.17-24.2,23.84Z"
          fill="#e1e1e1"/>

    <path d="M520.55,198.16l-13.4-24.33V125.41l13.4-24.33,13.29,24.33v48.41Zm-12.09-24.67,12.09,21.95,12-21.95V125.75l-12-22-12.09,22Z"
          fill="#e1e1e1"/>

    <rect x="495.89" y="124.25" width="49.31" height="1.31" fill="#e1e1e1"/>

    <rect x="495.89" y="172.78" width="49.31" height="1.31" fill="#e1e1e1"/>

    <rect x="569.58" y="241.7" width="49.31" height="1.31" fill="#e1e1e1"/>

    <rect x="603.87" y="275.15" width="9.38" height="1.31" fill="#e1e1e1"/>

    <rect x="641.76" y="275.15" width="9.38" height="1.31" fill="#e1e1e1"/>

    <rect x="593.42" y="54.74" width="1.31" height="212.16" fill="#e1e1e1"/>

    <path d="M594.07,267.94l-25.58-25.59,25.58-25.58,25.59,25.58Zm-23.73-25.59,23.73,23.74,23.74-23.74-23.74-23.73Z"
          fill="#e1e1e1"/>

    <rect x="626.74" y="55.26" width="1.31" height="244.25" fill="#e1e1e1"/>

    <path d="M627.44,300.44l-24.63-24.63,24.63-24.63,24.63,24.63Zm-22.78-24.63,22.78,22.77,22.77-22.77L627.44,253Z"
          fill="#e1e1e1"/>

    <path d="M627.53,291.18l-15.37-15.37,15.37-15.37,15.37,15.37ZM614,275.81l13.52,13.52,13.52-13.52-13.52-13.52Z"
          fill="#e1e1e1"/>

    <rect x="636.31" y="241.64" width="49.31" height="1.31" fill="#e1e1e1"/>

    <rect x="660.14" y="54.68" width="1.31" height="212.16" fill="#e1e1e1"/>

    <path d="M660.8,267.88l-25.59-25.59,25.59-25.58,25.59,25.58Zm-23.73-25.59L660.8,266l23.73-23.74L660.8,218.56Z"
          fill="#e1e1e1"/>

    <rect x="710.69" y="54.74" width="1.31" height="55.79" fill="#e1e1e1"/>

    <path d="M739.81,156.4H683.58l27.76-47.15Zm-53.94-1.31h51.62l-26.13-43.28Z" fill="#e1e1e1"/>

    <path d="M721.59,156.4H701.28l10.06-49.11Zm-18.7-1.31H720l-8.62-41.33Z" fill="#e1e1e1"/>

    <rect x="746.75" y="54.68" width="1.31" height="99.35" fill="#e1e1e1"/>

    <path d="M775.87,199.9H719.64l27.76-47.15Zm-53.94-1.31h51.61l-26.12-43.28Z" fill="#e1e1e1"/>

    <path d="M757.65,199.9H737.34l10.06-49.11Zm-18.71-1.31H756l-8.63-41.33Z" fill="#e1e1e1"/>

    <polygon points="127.38 520.91 132.92 530.99 141.84 530.99 138.55 515.19 127.38 520.91" fill="#f9b499"/>

    <path d="M127.38,540v-3.77a29.75,29.75,0,0,0,4.31-7.35,3.74,3.74,0,0,1,4.79-2.06c1.19.49,2.35,1.66,3,4.19,0,0,3.37-3.74,3.2,2.26V540Z"
          fill="#0071f2" data-primary="true"/>

    <path d="M166.25,529.81a56.84,56.84,0,0,1,10.62-4.49l2.19,9.72-8.43,2.44Z" fill="#f9b499"/>

    <path d="M158.16,534.19,162,540l3.2-.9V543l21.06,10.28a2.55,2.55,0,0,0,.14-.25,4.68,4.68,0,0,0-2.66-6.49,10.81,10.81,0,0,1-6.91-6.51,10.71,10.71,0,0,0-1.61-6.62,1.48,1.48,0,0,0-2.54.16c-.47,1-1.21,1.66-2.29.57a3.35,3.35,0,0,1-.79-1.35c-.42-1.26-1.71-4.4-4.32-4.38a3.31,3.31,0,0,0-2.29,1Z"
          fill="#0071f2" data-primary="true"/>

    <path d="M214.41,443.92l-18.7,7.15,8.76,18.2-8.95,5.41-2.84,15.65c6.91-1,20.39-6.91,20.39-6.91l.28-.1a11.5,11.5,0,0,0,7.47-10.95c-.13-11-5.73-27.54-5.73-27.54Z"
          fill="#f9b499"/>

    <polygon points="111.8 445.45 111.8 455.11 125.05 464.32 132.92 450.84 111.8 445.45" fill="#f9b499"/>

    <path d="M174.91,524.82l3.84,12.66,66.07-1.27a13,13,0,0,0,8.84-4.85,10.92,10.92,0,0,0,.32-12.27c-1.73-2.8-5-5.45-11-5C242.94,514.14,196.54,517.3,174.91,524.82Z"
          fill="#2f2e41" data-secondary="true"/>

    <path d="M137.1,515.49s.86,14.29,40.62,8.41l76.76-3.5s-1.11-7.1-15.44-13.5c0,0-38.51-15.41-52.89-13.88,0,0-42.18,5-42.51,3a7.45,7.45,0,0,1-4.46-3.13s-7.4,1.47-7.9-6.23L130,467.13s-10.74-12.24-22.55-16.26Z"
          fill="#2f2e41" data-secondary="true"/>

    <path d="M116.48,458.63c5.18,10.25,19.21,39.24,22.41,58.46l-13.15,6.09s-20.4-38.82-29.28-51.32c0,0-8.22-12.59,0-19.45,0,0,3.94-3.45,10.36-1.73A15.37,15.37,0,0,1,116.48,458.63Z"
          fill="#2f2e41" data-secondary="true"/>

    <path d="M198.21,454.38l18.73-8c-1.35-10.78-14.6-29-14.6-29-5.62-7.19-33.7-16.22-33.7-16.22H158.08c-7.41,2.66-28.08,12.4-28.08,12.4-12.14,7.19-19.77,32.8-19.77,32.8l20.1,9.6,8.06,35a6.62,6.62,0,0,0,4.29,4.78,26.07,26.07,0,0,0,7.2,1.33h29l.41,0a12.4,12.4,0,0,0,11.39-9.64Z"
          fill="#0071f2" data-primary="true"/>

    <path d="M155.85,401.15H170.6a0,0,0,0,1,0,0v4a6.61,6.61,0,0,1-6.61,6.61h-1.53a6.61,6.61,0,0,1-6.61-6.61v-4a0,0,0,0,1,0,0Z"
          fill="#f9b499"/>

    <path d="M145.78,377.76l4.94,1.69V384s2.53,15.34,7.58,20.9c0,0,5.4,4.21,10.28,0a23.07,23.07,0,0,0,5.23-12.83l3.37-7.73a7.46,7.46,0,0,0,.19-2.61,3.47,3.47,0,0,1,.75-2.42,8.26,8.26,0,0,0,1-9.24s-1.39-2.77-5.83-2.46a1.21,1.21,0,0,1-1.2-.72c-.64-1.46-2.53-4.13-7.35-1.76,0,0-4.61,2.47-7.3.56,0,0-8.88-5.84-12.25,3.49a9.72,9.72,0,0,0-.9,6.9A2.34,2.34,0,0,0,145.78,377.76Z"
          fill="#2f2e41" data-secondary="true"/>

    <path d="M153.51,386.1l2.18,6.4a4.73,4.73,0,0,0,4,3.21,4.59,4.59,0,0,0,3.75-1.48s3.82,3.59,7.08-.34l2.31-7a11.58,11.58,0,0,0-.13-7.75,8.65,8.65,0,0,0-1-1.93,3.49,3.49,0,0,0-5.09-.66l-.15.13a5.34,5.34,0,0,1-2.72,1.39,4.39,4.39,0,0,1-3.43-.66s-4.39-3.6-6.29,0a8.13,8.13,0,0,0-.88,2.36A11.57,11.57,0,0,0,153.51,386.1Z"
          fill="#f9b499"/>

    <path d="M136.42,449.55h55.39a7.1,7.1,0,0,1,7.1,7.1v.82a0,0,0,0,1,0,0H129.32a0,0,0,0,1,0,0v-.82a7.1,7.1,0,0,1,7.1-7.1Z"
          fill="#fafafa"/>

    <path d="M128.54,456.63s0-4.38,5.72-4.21h59.15s4.72.34,4.72,4.22l-2.33,29.91a7,7,0,0,1-6.51,6.47H139.2c-.51,0-1,0-1.54,0-1.62.05-6.82-.17-7.1-5.43Z"
          fill="#2f2e41" data-secondary="true"/>

    <g opacity="0.2">

        <path d="M128.54,456.63s0-4.38,5.72-4.21h59.15s4.72.34,4.72,4.22l-2.33,29.91a7,7,0,0,1-6.51,6.47H139.2c-.51,0-1,0-1.54,0-1.62.05-6.82-.17-7.1-5.43Z"/>

    </g>

    <ellipse cx="151.28" cy="388.42" rx="1.72" ry="3.76" transform="translate(-113.96 66.85) rotate(-18.24)"
             fill="#f9b499"/>

    <ellipse cx="175.6" cy="388.16" rx="3.76" ry="1.72" transform="translate(-237.09 493.97) rotate(-80.04)"
             fill="#f9b499"/>

    <path d="M360,402.93l-10.1-34.5a3.2,3.2,0,0,1,3.07-4.09h31.58a3.2,3.2,0,0,1,3.07,2.32l15.86,55.45a3.19,3.19,0,0,1-3.07,4.07H369.62a3.19,3.19,0,0,1-3.05-2.24Z"
          fill="#2f2e41" data-secondary="true"/>

    <path d="M446.5,387.54H424.22l3.18,18.51a1.61,1.61,0,0,1-1.54,1.87l-17.7.4c-3.59-10.89-7-10.44-7-10.44-1.8-.34-1,5.61-1,5.61H396c-7.26-5.9-7.42-3.14-7.42-3.14-1.68,1.79,5.78,5.35,5.78,5.35a3,3,0,0,0,1.57,4.67c-2,3.72,1,4.58,1,4.58-1.24,6.29,10.16,2.7,10.16,2.7l24.29,4.84a7.48,7.48,0,0,0,8.59-5S445.72,393.83,446.5,387.54Z"
          fill="#f9b499"/>

    <path d="M396.93,339.24v5.7s8.59,9.85,17.18.7c0,0-5.32-4-7.21-16.58h-4.24Z" fill="#f9b499"/>

    <path d="M683.27,364.63s-15.12,4.55-24.81,28.94l6.83,2.78s3.6,16.13,1.35,27.14c0,0-5.39,16.62-7.19,21.57h49.43A161.93,161.93,0,0,1,701,430.88a19.76,19.76,0,0,1-1.72-10.47A40,40,0,0,1,707.08,401l15.73-2.69s-2-26.51-24.27-35.27c0,0-2.5,5-10,4.58-.54,0-1.07-.06-1.61-.08C685.79,367.54,683.44,367.17,683.27,364.63Z"
          fill="#0071f2" data-primary="true"/>

    <path d="M683.91,367.39l0,0a1.44,1.44,0,0,1-.58-2.05c3-5,2.12-11.15,2.12-11.15a9.06,9.06,0,0,1-6.38-4.39,10.37,10.37,0,0,1-1.39-3.7,31.64,31.64,0,0,1,1-15.38s6.29-8.2,12.92,1.12c0,0,.79,10.23,4.16,9.89,0,0,3.7-3.82,5.84-1.35,0,0,2.27,2.61-3.13,7.44l-2.94,1.88s2.2,10.73,2.45,16a1.47,1.47,0,0,1-1.07,1.5l-3.62,1A13.28,13.28,0,0,1,683.91,367.39Z"
          fill="#f9b499"/>

    <path d="M679.12,331.09s-5.63-4.21-1.13-12.18c0,0,4.27-8.09,14.26-2.36a38.59,38.59,0,0,1,5.06,6.38,4.39,4.39,0,0,0,4,1.33,7.76,7.76,0,0,1,2.15.09,9.07,9.07,0,0,1,7,6.21,12,12,0,0,1,.6,4.83,25.25,25.25,0,0,1-2.35,8.95,16.46,16.46,0,0,0-1.64,6.38c-.11,2.52.36,5.44,2.58,7.28,0,0,11.69,11.12,8.43,18.53,0,0-7.64,7.42-17.3,3.37a16.17,16.17,0,0,1-2.58-11.2,151.82,151.82,0,0,0-2.7-19s6.5-5.72,6.4-8.2c0,0,.36-2.2-2.85-1.86a7.49,7.49,0,0,0-3.32,2.09s-3.26,1-4.16-9.89C691.58,331.82,685,322.89,679.12,331.09Z"
          fill="#2f2e41" data-secondary="true"/>

    <path d="M396.93,343.49v-2.07a11.25,11.25,0,0,0,6.71-5.93A8.79,8.79,0,0,1,396.93,343.49Z" fill="#f4a48e"/>

    <path d="M383.22,321.6s-1.38,13.78,7.19,18.89a8.53,8.53,0,0,0,10.1-1,21.41,21.41,0,0,0,5.3-8.71s5.72-7.15-.68-10.74h-8l-8.09-3.6Z"
          fill="#f9b499"/>

    <path d="M377.22,318.53a1,1,0,0,1-1.14-1.32c1-2.46,3.3-6.12,8.24-6.23H389s8.11-5.84,14.28-1.62c0,0,5,1.62,3.24,10.86,0,0,4.06,1.46,3.08,9.74,0,0,2.92,5-2.43,3.08l-1.53-2.52A1.13,1.13,0,0,1,406,329c.88-.54,1.92-1.89,1.56-5.34a3.28,3.28,0,0,0-2.25-2.89,2.71,2.71,0,0,0-2.15.31,3.64,3.64,0,0,0-1.67,2.87c-.1,1.21,0,2.78,1.14,3.31,0,0-1.69,1.49-3.67-2.26a19.64,19.64,0,0,0-1.83-2.84c-1.72-2.17-4.5-4.86-5.85-1.46,0,0-1.12,2.87-2.7,0,0,0,.34-2.88-1.79-.86,0,0-4.38,7-5.39,1.91,0,0-3,3-3.37-1,0,0,0-1.64,1-2.15A4.34,4.34,0,0,0,377.22,318.53Z"
          fill="#2f2e41" data-secondary="true"/>

    <path d="M560.9,334.35l.41,2.63a7.78,7.78,0,0,1-6-7S557.88,333.82,560.9,334.35Z" fill="#f4a48e"/>

    <path d="M685.4,354.17a15.23,15.23,0,0,1,0,2.52,12.25,12.25,0,0,0,6.31-5.13S688.14,355,685.4,354.17Z"
          fill="#f4a48e"/>

</svg>